<svg xmlns="http://www.w3.org/2000/svg" viewBox="0 0 960 960" width="24" height="24"><path fill="#000000" transform="translate(0 960) scale(1 -1)" d="M212.30859375 100.00146484375Q182.0010986328125 100.00146484375 161.00128173828125 121.00128173828125Q140.00146484375 142.0010986328125 140.00146484375 172.30859375V707.69140625Q140.00146484375 737.9989013671875 161.00128173828125 758.9987182617188Q182.0010986328125 779.99853515625 212.30859375 779.99853515625H267.6943359375V833.845703125Q267.6943359375 846.999267578125 276.5018310546875 855.8067626953125Q285.309326171875 864.6142578125 298.462890625 864.6142578125Q311.616455078125 864.6142578125 320.4239501953125 855.8067626953125Q329.2314453125 846.999267578125 329.2314453125 833.845703125V779.99853515625H632.30712890625V834.614990234375Q632.30712890625 847.3839111328125 640.9223022460938 855.9990844726562Q649.5374755859375 864.6142578125 662.306396484375 864.6142578125Q675.0753173828125 864.6142578125 683.6904907226562 855.9990844726562Q692.3056640625 847.3839111328125 692.3056640625 834.614990234375V779.99853515625H747.69140625Q777.9989013671875 779.99853515625 798.9987182617188 758.9987182617188Q819.99853515625 737.9989013671875 819.99853515625 707.69140625V172.30859375Q819.99853515625 142.0010986328125 798.9987182617188 121.00128173828125Q777.9989013671875 100.00146484375 747.69140625 100.00146484375ZM212.30859375 160H747.69140625Q752.30712890625 160 756.153564453125 163.846435546875Q760 167.69287109375 760 172.30859375V547.69140625H200V172.30859375Q200 167.69287109375 203.846435546875 163.846435546875Q207.69287109375 160 212.30859375 160ZM200 607.68994140625H760V707.69140625Q760 712.30712890625 756.153564453125 716.153564453125Q752.30712890625 720 747.69140625 720H212.30859375Q207.69287109375 720 203.846435546875 716.153564453125Q200 712.30712890625 200 707.69140625ZM200 607.68994140625V707.69140625Q200 712.30712890625 200.0 716.153564453125Q200 720 200 720Q200 720 200.0 716.153564453125Q200 712.30712890625 200 707.69140625V607.68994140625ZM480 396.9228515625Q465.307861328125 396.9228515625 454.9617919921875 407.2689208984375Q444.61572265625 417.614990234375 444.61572265625 432.30712890625Q444.61572265625 446.999267578125 454.9617919921875 457.3453369140625Q465.307861328125 467.69140625 480 467.69140625Q494.692138671875 467.69140625 505.0382080078125 457.3453369140625Q515.38427734375 446.999267578125 515.38427734375 432.30712890625Q515.38427734375 417.614990234375 505.0382080078125 407.2689208984375Q494.692138671875 396.9228515625 480 396.9228515625ZM320.0 396.9228515625Q305.307861328125 396.9228515625 294.9617919921875 407.2689208984375Q284.61572265625 417.614990234375 284.61572265625 432.30712890625Q284.61572265625 446.999267578125 294.9617919921875 457.3453369140625Q305.307861328125 467.69140625 320.0 467.69140625Q334.692138671875 467.69140625 345.0382080078125 457.3453369140625Q355.38427734375 446.999267578125 355.38427734375 432.30712890625Q355.38427734375 417.614990234375 345.0382080078125 407.2689208984375Q334.692138671875 396.9228515625 320.0 396.9228515625ZM640 396.9228515625Q625.307861328125 396.9228515625 614.9617919921875 407.2689208984375Q604.61572265625 417.614990234375 604.61572265625 432.30712890625Q604.61572265625 446.999267578125 614.9617919921875 457.3453369140625Q625.307861328125 467.69140625 640 467.69140625Q654.692138671875 467.69140625 665.0382080078125 457.3453369140625Q675.38427734375 446.999267578125 675.38427734375 432.30712890625Q675.38427734375 417.614990234375 665.0382080078125 407.2689208984375Q654.692138671875 396.9228515625 640 396.9228515625ZM480 240Q465.307861328125 240 454.9617919921875 250.3460693359375Q444.61572265625 260.692138671875 444.61572265625 275.38427734375Q444.61572265625 290.076416015625 454.9617919921875 300.4224853515625Q465.307861328125 310.7685546875 480 310.7685546875Q494.692138671875 310.7685546875 505.0382080078125 300.4224853515625Q515.38427734375 290.076416015625 515.38427734375 275.38427734375Q515.38427734375 260.692138671875 505.0382080078125 250.3460693359375Q494.692138671875 240 480 240ZM284.61572265625 275.38427734375Q284.61572265625 290.076416015625 294.9617919921875 300.4224853515625Q305.307861328125 310.7685546875 320.0 310.7685546875Q334.692138671875 310.7685546875 345.0382080078125 300.4224853515625Q355.38427734375 290.076416015625 355.38427734375 275.38427734375Q355.38427734375 260.692138671875 345.0382080078125 250.3460693359375Q334.692138671875 240 320.0 240.0Q305.307861328125 240 294.9617919921875 250.3460693359375Q284.61572265625 260.692138671875 284.61572265625 275.38427734375ZM640 240Q625.307861328125 240 614.9617919921875 250.3460693359375Q604.61572265625 260.692138671875 604.61572265625 275.38427734375Q604.61572265625 290.076416015625 614.9617919921875 300.4224853515625Q625.307861328125 310.7685546875 640 310.7685546875Q654.692138671875 310.7685546875 665.0382080078125 300.4224853515625Q675.38427734375 290.076416015625 675.38427734375 275.38427734375Q675.38427734375 260.692138671875 665.0382080078125 250.3460693359375Q654.692138671875 240 640 240Z"/></svg>
