<svg xmlns="http://www.w3.org/2000/svg" viewBox="0 0 960 960" width="24" height="24"><path fill="#000000" transform="translate(0 960) scale(1 -1)" d="M480 451.692138671875 270.1539306640625 241.8460693359375Q264.53851318359375 236.23065185546875 256.3846130371094 235.84603881835938Q248.230712890625 235.46142578125 241.8460693359375 241.8460693359375Q235.46142578125 248.230712890625 235.46142578125 256.0Q235.46142578125 263.769287109375 241.8460693359375 270.1539306640625L451.692138671875 480L241.8460693359375 689.8460693359375Q236.23065185546875 695.4614868164062 235.84603881835938 703.6153869628906Q235.46142578125 711.769287109375 241.8460693359375 718.1539306640625Q248.230712890625 724.53857421875 256.0 724.53857421875Q263.769287109375 724.53857421875 270.1539306640625 718.1539306640625L480 508.307861328125L689.8460693359375 718.1539306640625Q695.4614868164062 723.7693481445312 703.6153869628906 724.1539611816406Q711.769287109375 724.53857421875 718.1539306640625 718.1539306640625Q724.53857421875 711.769287109375 724.53857421875 704.0Q724.53857421875 696.230712890625 718.1539306640625 689.8460693359375L508.307861328125 480L718.1539306640625 270.1539306640625Q723.7693481445312 264.53851318359375 724.1539611816406 256.3846130371094Q724.53857421875 248.230712890625 718.1539306640625 241.8460693359375Q711.769287109375 235.46142578125 704.0 235.46142578125Q696.230712890625 235.46142578125 689.8460693359375 241.8460693359375Z"/></svg>
